<?xml version="1.0" standalone="no"?>
<!DOCTYPE svg PUBLIC "-//W3C//DTD SVG 20010904//EN"
 "http://www.w3.org/TR/2001/REC-SVG-20010904/DTD/svg10.dtd">
<svg version="1.0" xmlns="http://www.w3.org/2000/svg"
 width="200.000000pt" height="200.000000pt" viewBox="0 0 200.000000 200.000000"
 preserveAspectRatio="xMidYMid meet">
<metadata>
Created by potrace 1.14, written by Peter Selinger 2001-2017
</metadata>
<g transform="translate(0.000000,200.000000) scale(0.100000,-0.100000)"
fill="#000000" stroke="none">
<path d="M828 1605 c-313 -59 -566 -273 -687 -583 -19 -48 -27 -76 -46 -167
-4 -16 -8 -130 -10 -253 l-3 -223 46 3 46 3 1 205 c2 265 20 354 98 500 104
194 302 353 506 405 411 104 814 -89 978 -470 57 -131 66 -188 67 -428 l1
-218 45 3 45 3 0 200 c1 211 -9 299 -45 405 -100 297 -334 518 -635 600 -104
29 -298 35 -407 15z"/>
<path d="M989 1496 c-2 -2 -35 -6 -74 -10 -182 -15 -362 -106 -496 -249 -78
-83 -165 -244 -185 -342 -18 -91 -24 -165 -24 -327 l0 -187 163 -3 c89 -2 210
-2 269 0 l106 3 4 177 c3 158 5 181 25 217 98 183 348 183 446 0 20 -36 22
-59 25 -217 l4 -178 269 0 270 0 -2 199 c-1 174 -5 224 -23 316 -3 11 -13 45
-24 76 -97 276 -365 489 -647 514 -33 3 -69 8 -81 10 -12 3 -23 3 -25 1z"/>
</g>
</svg>
